<?xml version="1.0" encoding="utf-8"?>
<!-- Generator: Adobe Illustrator 27.4.0, SVG Export Plug-In . SVG Version: 6.00 Build 0)  -->
<svg version="1.1" id="Capa_1" xmlns="http://www.w3.org/2000/svg" xmlns:xlink="http://www.w3.org/1999/xlink" x="0px" y="0px"
	 viewBox="0 0 130.46 130.46" style="enable-background:new 0 0 130.46 130.46;" xml:space="preserve">
<style type="text/css">
	.st0{fill:#005383;}
	.st1{fill:url(#SVGID_1_);}
	.st2{fill:none;}
	.st3{fill:url(#SVGID_00000011736279031298760620000012257325305549644443_);}
	.st4{fill:#FFFFFF;}
	.st5{fill:url(#SVGID_00000026843720806642002900000017511808725377258154_);}
	.st6{fill:url(#SVGID_00000121278718483787009740000014234034715266122924_);}
	.st7{fill:url(#SVGID_00000058548192795463827370000013281638660424321922_);}
	.st8{fill:url(#SVGID_00000145762380148207187770000009234871635183856282_);}
	.st9{fill:url(#SVGID_00000137119058329144492020000005476523844041440432_);}
	.st10{fill:url(#SVGID_00000170280889885703242840000010899242000601792702_);}
	.st11{fill:url(#SVGID_00000008111858105297252460000014614102155232071349_);}
	.st12{fill:url(#SVGID_00000146499661083168374660000013353393600933487238_);}
	.st13{fill:url(#SVGID_00000147922502231742622150000014301518310306781060_);}
	.st14{fill:url(#SVGID_00000128471596789933627430000006139060444284246924_);}
	.st15{fill:url(#SVGID_00000052085383915091176110000002057492157030748547_);}
	.st16{fill:url(#SVGID_00000086681507642715828080000006951180119482331275_);}
	.st17{fill:#542583;}
	.st18{fill:url(#SVGID_00000038393056843643009890000006528309650301859462_);}
	.st19{fill:#AE0B3B;}
	.st20{fill:url(#SVGID_00000151516188549486198940000013654378106171519653_);}
	.st21{fill:#D70926;}
	.st22{fill:url(#SVGID_00000034781140318647828210000011960572935850215296_);}
	.st23{fill:#B80926;}
	.st24{fill:#243A85;}
	.st25{fill:url(#SVGID_00000116929724584662778480000011400154897333785741_);}
</style>
<g>
	<g>
		<g>
			<circle class="st24" cx="65.23" cy="65.23" r="51.77"/>
			<g>
				<linearGradient id="SVGID_1_" gradientUnits="userSpaceOnUse" x1="19.1268" y1="19.1266" x2="111.3317" y2="111.3315">
					<stop  offset="0" style="stop-color:#E7BA43"/>
					<stop  offset="0.3" style="stop-color:#D19013"/>
					<stop  offset="0.3513" style="stop-color:#D79B1F"/>
					<stop  offset="0.536" style="stop-color:#E9BD46"/>
					<stop  offset="0.6324" style="stop-color:#F0CA55"/>
					<stop  offset="0.8174" style="stop-color:#E1AF39"/>
					<stop  offset="0.9441" style="stop-color:#D9A12A"/>
					<stop  offset="1" style="stop-color:#D9A12A"/>
				</linearGradient>
				<path class="st1" d="M65.23,130.46C29.26,130.46,0,101.2,0,65.23C0,29.26,29.26,0,65.23,0c35.97,0,65.23,29.26,65.23,65.23
					C130.46,101.2,101.2,130.46,65.23,130.46z M65.23,4.44c-33.52,0-60.79,27.27-60.79,60.79c0,33.52,27.27,60.79,60.79,60.79
					c33.52,0,60.79-27.27,60.79-60.79C126.02,31.71,98.75,4.44,65.23,4.44z"/>
			</g>
		</g>
	</g>
	<path class="st4" d="M49.74,46.38c0-3.35,2.73-6.08,6.08-6.08h33.43c3.35,0,6.08,2.73,6.08,6.08v27.35c0,3.35-2.73,6.08-6.08,6.08
		H66.53c-1.12-2.42-2.84-4.51-4.98-6.08h9.46v-3.04c0-1.68,1.36-3.04,3.04-3.04h6.08c1.68,0,3.04,1.36,3.04,3.04v3.04h6.08V46.38
		H55.81v4.66c-1.79-1.04-3.87-1.62-6.08-1.62V46.38z M49.74,52.46c5.04,0,9.12,4.08,9.12,9.12s-4.08,9.12-9.12,9.12
		s-9.12-4.08-9.12-9.12S44.7,52.46,49.74,52.46z M47.2,73.73h5.06c7,0,12.67,5.67,12.67,12.66c0,1.4-1.13,2.54-2.54,2.54H37.08
		c-1.41,0-2.54-1.13-2.54-2.54C34.54,79.4,40.21,73.73,47.2,73.73z"/>
</g>
</svg>
